<svg id="svg" version="1.1" xmlns="http://www.w3.org/2000/svg" xmlns:xlink="http://www.w3.org/1999/xlink" width="400" height="369.7674418604651" viewBox="0, 0, 400,369.7674418604651"><g id="svgg"><path id="path0" d="M120.402 54.021 C 119.362 54.175,117.697 54.558,116.702 54.873 C 115.707 55.187,113.486 55.639,111.765 55.876 C 109.877 56.136,107.971 56.661,106.958 57.201 C 106.034 57.692,104.861 58.095,104.351 58.095 C 103.840 58.095,102.840 58.419,102.128 58.814 C 101.415 59.209,99.833 60.016,98.612 60.607 C 97.391 61.197,96.164 61.956,95.884 62.293 C 95.605 62.629,95.170 62.905,94.918 62.905 C 93.806 62.905,83.317 72.285,81.117 75.247 C 80.360 76.266,79.287 77.694,78.732 78.420 C 78.177 79.147,77.321 80.594,76.831 81.636 C 76.340 82.679,75.758 83.643,75.537 83.780 C 75.316 83.916,74.900 84.812,74.614 85.770 C 74.327 86.728,73.657 88.327,73.124 89.324 C 72.591 90.321,72.155 91.386,72.155 91.691 C 72.155 91.996,71.672 93.761,71.082 95.614 C 70.368 97.855,69.922 100.221,69.750 102.683 C 69.607 104.718,69.259 107.965,68.975 109.898 C 68.549 112.804,68.465 124.297,68.494 176.133 C 68.536 255.128,68.828 267.794,70.726 273.080 C 71.128 274.200,71.670 276.031,71.930 277.151 C 72.190 278.270,72.698 279.754,73.060 280.449 C 73.421 281.143,74.008 282.559,74.365 283.594 C 74.721 284.629,75.410 286.082,75.896 286.822 C 76.962 288.443,78.040 290.199,78.889 291.695 C 81.039 295.487,93.091 307.123,94.868 307.123 C 95.148 307.123,95.605 307.400,95.884 307.738 C 96.164 308.076,97.308 308.757,98.427 309.250 C 99.547 309.744,100.718 310.377,101.031 310.656 C 101.344 310.936,102.593 311.399,103.806 311.685 C 105.020 311.971,106.720 312.577,107.584 313.031 C 108.476 313.500,110.633 314.073,112.579 314.358 C 114.463 314.634,116.836 315.159,117.854 315.524 C 120.708 316.549,279.148 316.558,282.331 315.534 C 283.451 315.173,285.813 314.629,287.581 314.325 C 289.349 314.020,291.680 313.359,292.761 312.856 C 293.843 312.352,295.090 311.939,295.535 311.937 C 296.356 311.933,301.888 309.214,304.063 307.745 C 304.720 307.301,306.260 306.293,307.485 305.505 C 308.711 304.717,309.713 303.941,309.713 303.781 C 309.713 303.621,310.454 303.022,311.360 302.449 C 312.266 301.876,313.209 301.031,313.455 300.571 C 313.701 300.111,314.167 299.637,314.490 299.517 C 315.222 299.247,320.329 293.435,320.681 292.473 C 320.823 292.084,321.410 291.220,321.987 290.551 C 322.563 289.883,323.034 289.125,323.034 288.866 C 323.034 288.608,323.511 287.645,324.093 286.726 C 324.676 285.808,325.362 284.402,325.618 283.601 C 325.875 282.801,326.399 281.623,326.784 280.984 C 327.170 280.345,327.664 278.852,327.883 277.666 C 328.103 276.480,328.606 274.875,329.001 274.100 C 329.507 273.109,329.887 271.017,330.283 267.057 C 330.592 263.959,330.999 260.759,331.186 259.944 C 331.799 257.280,331.643 113.168,331.023 109.484 C 330.735 107.779,330.385 104.718,330.245 102.683 C 330.091 100.453,329.644 97.920,329.120 96.309 C 328.643 94.839,328.142 93.008,328.007 92.239 C 327.872 91.471,327.355 90.131,326.858 89.262 C 326.361 88.393,325.740 86.977,325.478 86.117 C 325.216 85.256,324.601 83.946,324.111 83.206 C 323.620 82.466,322.886 81.314,322.479 80.646 C 322.072 79.978,321.379 78.850,320.939 78.139 C 318.350 73.955,310.300 66.063,305.874 63.368 C 305.288 63.011,304.346 62.343,303.780 61.883 C 303.214 61.422,302.036 60.793,301.162 60.485 C 300.289 60.177,299.309 59.685,298.985 59.392 C 298.661 59.098,297.350 58.590,296.072 58.263 C 294.794 57.936,293.219 57.363,292.573 56.991 C 291.926 56.619,289.815 56.053,287.882 55.733 C 285.948 55.414,283.451 54.857,282.331 54.497 C 280.162 53.799,124.981 53.343,120.402 54.021 M218.310 97.410 C 218.971 100.057,219.041 100.107,221.883 99.970 C 224.519 99.843,226.457 100.673,226.457 101.929 C 226.457 103.276,227.716 103.989,230.276 104.090 C 232.705 104.186,232.851 104.247,234.200 105.708 C 235.708 107.340,237.635 107.964,239.744 107.500 C 240.965 107.232,241.628 107.987,241.628 109.644 C 241.628 110.740,242.401 111.437,244.178 111.944 C 245.174 112.228,245.675 112.666,246.147 113.667 C 246.496 114.405,247.299 115.377,247.931 115.827 C 248.563 116.277,249.227 117.034,249.408 117.507 C 249.622 118.070,250.247 118.523,251.213 118.812 C 252.999 119.347,253.121 119.605,253.461 123.554 C 253.753 126.953,254.209 127.660,256.108 127.660 C 257.503 127.660,257.722 128.157,257.723 131.332 L 257.724 134.079 259.204 134.849 L 260.685 135.619 260.795 138.376 C 260.920 141.518,261.140 141.920,262.913 142.253 C 265.121 142.667,265.089 142.357,265.040 162.396 C 264.992 182.334,265.118 181.326,262.635 181.658 L 261.055 181.869 260.951 186.840 C 260.839 192.200,260.731 192.523,258.771 193.342 L 257.539 193.857 257.539 196.606 C 257.539 199.603,257.346 199.943,255.409 200.357 C 254.104 200.636,253.469 201.465,253.469 202.891 C 253.469 203.997,252.936 204.458,251.249 204.810 C 249.641 205.146,249.029 205.621,249.029 206.532 C 249.029 207.443,245.570 210.883,243.691 211.841 C 242.482 212.457,242.172 212.855,241.841 214.219 C 241.480 215.706,241.295 215.905,239.834 216.389 C 238.610 216.795,238.105 217.207,237.727 218.111 C 236.949 219.974,236.387 220.249,233.641 220.108 C 231.008 219.973,231.071 219.936,230.081 222.202 C 229.616 223.267,229.482 223.319,226.786 223.497 C 223.843 223.691,222.757 224.206,222.757 225.409 C 222.757 227.582,221.446 227.972,214.340 227.913 C 207.004 227.852,207.680 227.618,206.516 230.620 L 206.121 231.637 195.660 231.674 C 189.906 231.694,181.895 231.692,177.857 231.670 L 170.516 231.631 169.162 233.022 C 168.417 233.787,167.153 234.746,166.352 235.153 L 164.897 235.893 164.978 244.311 C 165.068 253.694,164.966 254.209,163.030 254.209 C 161.610 254.209,161.152 254.645,160.789 256.345 C 160.593 257.260,160.176 257.736,159.083 258.294 C 158.142 258.774,157.452 259.473,157.110 260.292 C 156.218 262.428,155.637 262.574,147.616 262.685 C 138.920 262.806,138.034 262.585,137.235 260.103 C 136.770 258.657,136.579 258.484,135.060 258.121 C 133.605 257.774,133.306 257.526,132.687 256.157 C 132.297 255.295,131.668 254.492,131.289 254.372 C 129.410 253.775,129.492 256.322,129.597 201.689 L 129.695 150.906 130.620 150.179 C 133.010 148.300,132.840 148.913,132.840 142.168 C 132.840 135.418,132.940 135.060,134.827 135.060 C 136.765 135.060,137.280 134.205,137.280 130.990 C 137.280 127.887,137.632 127.243,139.584 126.780 C 140.324 126.604,140.674 126.222,140.900 125.342 C 141.138 124.417,141.583 123.966,142.852 123.363 C 144.364 122.644,144.511 122.451,144.681 120.958 C 144.862 119.364,144.894 119.332,146.346 119.223 C 148.349 119.072,148.751 118.405,148.751 115.238 C 148.751 111.887,149.044 111.604,152.390 111.712 C 155.200 111.803,155.872 111.383,156.325 109.250 C 156.519 108.340,156.821 107.997,157.569 107.841 C 159.210 107.497,159.632 107.146,160.466 105.434 C 160.905 104.531,161.405 103.801,161.576 103.810 C 161.747 103.820,162.846 103.964,164.018 104.131 C 166.476 104.480,167.073 104.176,167.457 102.380 C 167.856 100.508,168.235 100.278,170.906 100.276 C 173.674 100.275,175.763 99.334,175.763 98.090 C 175.763 95.839,175.777 95.837,197.815 95.837 L 217.918 95.837 218.310 97.410 M197.002 131.699 C 193.601 131.917,192.637 132.296,192.231 133.574 C 191.912 134.581,190.174 135.125,187.282 135.125 C 184.383 135.125,184.111 135.305,183.783 137.435 C 183.498 139.286,183.141 139.488,180.138 139.495 C 177.554 139.501,176.578 140.107,175.946 142.098 C 175.826 142.476,175.166 142.970,174.480 143.197 C 172.638 143.805,172.281 144.456,172.247 147.272 C 172.213 150.079,171.937 150.582,169.937 151.483 L 168.548 152.110 168.656 160.144 C 168.776 169.030,168.785 169.103,169.781 169.103 C 171.711 169.103,172.541 170.517,172.283 173.366 C 172.007 176.414,172.154 176.652,174.562 177.049 C 175.874 177.266,176.170 177.472,176.345 178.294 C 176.744 180.170,177.239 180.960,178.256 181.344 C 178.818 181.557,179.611 182.140,180.019 182.640 C 180.426 183.140,181.340 183.837,182.052 184.189 C 183.097 184.706,183.387 185.098,183.569 186.235 C 183.926 188.472,183.555 188.410,196.596 188.408 C 209.820 188.405,209.746 188.416,210.908 186.138 C 211.313 185.346,211.986 184.589,212.404 184.456 C 212.822 184.324,213.564 183.581,214.053 182.806 C 214.715 181.758,215.303 181.313,216.352 181.066 C 217.582 180.776,217.806 180.554,218.115 179.316 C 218.371 178.286,218.838 177.663,219.818 177.044 C 220.561 176.576,221.517 175.601,221.943 174.879 C 222.390 174.123,223.123 173.465,223.675 173.327 C 225.556 172.854,225.730 171.841,225.690 161.555 C 225.651 151.246,225.671 151.341,223.394 150.773 C 222.066 150.441,221.572 149.469,221.499 147.037 C 221.449 145.385,221.255 144.875,220.288 143.858 C 219.654 143.191,218.782 141.938,218.349 141.073 C 217.751 139.879,217.348 139.500,216.674 139.500 C 215.135 139.500,214.636 139.098,214.214 137.520 C 213.564 135.090,213.420 135.015,209.466 135.063 C 202.733 135.145,203.290 135.282,202.303 133.302 C 201.320 131.330,201.572 131.406,197.002 131.699 M198.612 139.733 C 199.070 140.021,199.445 140.420,199.445 140.619 C 199.445 141.989,200.894 142.461,205.098 142.461 C 209.680 142.461,210.684 142.808,211.008 144.506 C 211.248 145.758,210.443 146.531,208.900 146.531 C 207.500 146.531,207.035 146.971,206.679 148.633 C 206.323 150.303,205.642 150.709,203.229 150.693 C 200.844 150.677,199.723 151.215,199.002 152.722 C 198.475 153.824,197.634 154.113,193.802 154.506 C 191.760 154.716,191.674 154.767,191.674 155.781 C 191.674 156.842,190.251 158.372,189.265 158.372 C 188.323 158.372,187.841 159.528,187.936 161.565 C 188.048 163.997,187.383 165.230,185.763 165.585 C 184.329 165.900,183.904 166.718,183.902 169.171 C 183.899 172.047,183.301 173.913,182.382 173.913 C 180.574 173.913,179.463 172.264,179.463 169.578 C 179.463 167.975,178.995 167.111,177.201 165.404 L 175.763 164.037 175.763 160.511 C 175.763 155.764,176.007 154.701,177.202 154.247 C 179.110 153.521,179.463 152.892,179.463 150.219 C 179.463 147.137,179.814 146.791,183.110 146.615 C 186.531 146.433,187.604 145.967,187.604 144.662 C 187.604 142.875,190.348 141.761,193.706 142.183 C 194.249 142.251,194.686 141.815,195.371 140.523 C 196.359 138.658,196.755 138.561,198.612 139.733 M275.947 151.089 C 276.216 151.358,276.469 152.729,276.538 154.293 C 276.640 156.608,276.783 157.115,277.473 157.607 C 277.921 157.926,278.656 158.463,279.106 158.801 L 279.926 159.416 280.032 177.058 L 280.139 194.700 278.275 196.506 L 276.411 198.312 276.411 202.418 C 276.411 206.943,276.104 207.956,274.733 207.956 C 273.245 207.956,272.341 209.179,272.338 211.193 C 272.335 213.968,271.723 215.644,270.477 216.288 C 269.877 216.598,269.122 217.256,268.798 217.750 C 268.474 218.245,267.626 218.993,266.912 219.414 C 266.077 219.907,265.408 220.707,265.033 221.661 C 264.636 222.674,264.178 223.198,263.586 223.320 C 263.109 223.417,262.305 223.583,261.798 223.688 C 261.072 223.839,260.790 224.227,260.462 225.526 C 260.199 226.572,259.794 227.254,259.354 227.393 C 258.973 227.514,258.064 228.342,257.334 229.233 C 256.604 230.124,255.644 230.904,255.200 230.968 C 254.656 231.045,254.094 231.683,253.469 232.932 L 252.544 234.783 249.535 234.979 C 246.085 235.204,245.328 235.644,245.328 237.427 C 245.328 238.977,244.437 239.408,241.234 239.408 C 238.956 239.408,238.780 239.505,237.202 241.628 C 236.525 242.539,236.424 242.555,230.653 242.652 C 223.329 242.775,223.127 242.816,223.127 244.199 C 223.127 245.847,222.275 246.436,219.863 246.456 C 218.707 246.465,210.336 246.507,201.260 246.548 C 183.042 246.631,183.792 246.526,183.388 249.052 C 183.176 250.379,182.972 250.617,181.518 251.241 L 179.886 251.940 179.866 255.558 C 179.856 257.547,180.016 259.803,180.223 260.571 C 180.517 261.665,180.476 262.205,180.032 263.063 C 179.596 263.906,179.555 264.394,179.854 265.180 C 180.597 267.134,179.982 268.790,178.190 269.661 C 176.874 270.301,176.500 270.722,176.084 272.037 C 175.645 273.423,175.416 273.660,174.359 273.821 C 173.409 273.965,172.956 274.333,172.312 275.486 L 171.484 276.966 162.630 276.966 L 153.776 276.966 152.906 275.671 C 152.427 274.958,151.456 274.077,150.748 273.711 C 147.364 271.965,148.360 269.764,152.557 269.714 C 156.982 269.660,159.542 269.285,159.887 268.640 C 160.050 268.335,160.402 267.587,160.668 266.979 C 160.990 266.246,161.745 265.592,162.908 265.040 C 163.939 264.551,164.662 263.959,164.662 263.606 C 164.662 263.275,165.266 262.451,166.004 261.776 C 166.742 261.100,167.536 260.165,167.769 259.698 C 168.010 259.214,168.901 258.588,169.844 258.240 C 171.983 257.450,171.982 257.454,172.026 248.178 C 172.068 239.384,172.362 238.080,174.196 238.540 C 174.745 238.678,175.448 238.767,175.757 238.737 C 176.065 238.708,183.145 238.683,191.489 238.683 C 208.249 238.681,208.581 238.643,210.585 236.450 L 211.940 234.968 218.413 234.968 C 225.565 234.968,225.493 234.991,226.001 232.546 C 226.337 230.929,227.627 230.376,230.158 230.764 C 231.534 230.975,233.488 229.870,233.488 228.881 C 233.488 227.973,234.515 227.545,237.725 227.116 C 240.797 226.705,240.944 226.642,241.139 225.665 C 241.368 224.519,242.036 223.835,243.663 223.080 C 244.561 222.664,244.809 222.282,244.958 221.088 C 245.134 219.690,245.216 219.605,246.521 219.497 C 247.921 219.381,249.399 218.077,249.399 216.958 C 249.399 216.673,250.119 216.131,250.998 215.754 C 252.256 215.215,252.673 214.802,252.950 213.825 C 253.218 212.875,253.714 212.363,255.049 211.656 C 256.150 211.073,256.798 210.482,256.798 210.059 C 256.800 208.879,257.481 208.060,258.655 207.825 C 259.559 207.644,259.946 207.258,260.517 205.967 C 261.119 204.607,261.450 204.298,262.521 204.097 C 264.139 203.794,264.269 203.565,264.407 200.792 C 264.470 199.542,264.532 198.414,264.545 198.284 C 264.559 198.154,265.319 197.288,266.235 196.359 L 267.900 194.670 267.900 190.976 C 267.900 186.416,268.169 185.653,270.036 184.906 C 272.322 183.991,272.323 183.977,272.239 167.068 C 272.154 150.149,272.178 149.958,274.312 150.385 C 274.952 150.513,275.688 150.830,275.947 151.089 " stroke="none" fill="#323130" fill-rule="evenodd"></path><path id="path1" d="M0.000 185.014 L 0.000 370.028 200.000 370.028 L 400.000 370.028 400.000 185.014 L 400.000 0.000 200.000 0.000 L 0.000 0.000 0.000 185.014 M284.912 53.963 C 286.229 54.439,288.615 55.058,290.214 55.339 C 291.812 55.620,293.648 56.168,294.294 56.557 C 294.939 56.946,296.339 57.467,297.406 57.715 C 298.472 57.963,299.720 58.459,300.181 58.817 C 300.641 59.175,301.809 59.816,302.775 60.241 C 303.742 60.665,304.533 61.170,304.533 61.362 C 304.533 61.553,305.157 62.003,305.920 62.361 C 306.684 62.719,307.442 63.238,307.605 63.516 C 307.769 63.793,308.519 64.335,309.273 64.719 C 311.496 65.853,320.156 74.630,321.138 76.744 C 321.602 77.742,322.278 78.824,322.642 79.150 C 323.005 79.475,323.519 80.324,323.783 81.036 C 324.048 81.748,324.568 82.673,324.940 83.090 C 325.312 83.508,325.856 84.648,326.149 85.623 C 326.443 86.598,326.956 87.698,327.290 88.067 C 327.624 88.436,328.150 89.711,328.460 90.900 C 328.769 92.089,329.169 93.240,329.349 93.458 C 329.859 94.077,330.714 98.317,330.985 101.573 C 331.121 103.201,331.511 105.449,331.851 106.568 C 332.829 109.783,332.800 260.727,331.822 263.889 C 331.465 265.040,330.999 267.705,330.786 269.809 C 330.556 272.081,330.111 274.237,329.691 275.116 C 329.301 275.930,328.793 277.512,328.562 278.631 C 328.331 279.750,327.770 281.332,327.317 282.146 C 326.863 282.960,326.200 284.417,325.843 285.384 C 325.486 286.351,325.054 287.142,324.884 287.142 C 324.715 287.142,324.292 287.883,323.947 288.789 C 323.601 289.694,322.998 290.725,322.607 291.078 C 322.217 291.432,321.588 292.419,321.211 293.272 C 320.603 294.648,314.303 301.389,311.555 303.607 C 308.166 306.341,306.562 307.493,306.146 307.493 C 305.884 307.493,305.122 307.957,304.453 308.524 C 302.942 309.806,298.477 312.119,296.817 312.479 C 296.135 312.627,294.720 313.134,293.672 313.606 C 292.624 314.077,290.544 314.647,289.049 314.872 C 287.554 315.097,285.847 315.531,285.256 315.837 C 283.012 316.997,276.427 317.095,200.000 317.098 C 123.485 317.101,118.699 317.030,114.339 315.829 C 113.219 315.521,111.152 315.014,109.744 314.703 C 108.337 314.392,106.671 313.825,106.044 313.443 C 105.416 313.061,103.964 312.557,102.817 312.323 C 101.660 312.088,100.438 311.575,100.075 311.174 C 99.715 310.776,98.803 310.284,98.048 310.081 C 97.294 309.878,96.049 309.212,95.281 308.602 C 94.513 307.992,93.735 307.493,93.552 307.493 C 91.758 307.493,79.352 295.080,78.392 292.325 C 78.178 291.713,77.857 291.212,77.677 291.212 C 77.498 291.212,76.996 290.504,76.562 289.639 C 76.127 288.774,75.478 287.734,75.119 287.327 C 74.760 286.920,74.257 285.920,74.001 285.106 C 73.745 284.292,73.151 282.960,72.681 282.146 C 72.212 281.332,71.647 279.833,71.427 278.816 C 71.207 277.798,70.702 276.195,70.305 275.252 C 69.907 274.309,69.410 271.978,69.200 270.072 C 68.990 268.165,68.528 265.523,68.174 264.200 C 67.208 260.592,67.174 110.163,68.139 106.938 C 68.474 105.819,68.855 103.571,68.987 101.943 C 69.340 97.591,69.993 94.296,70.712 93.247 C 71.061 92.738,71.457 91.656,71.593 90.842 C 71.729 90.028,72.222 88.696,72.688 87.882 C 73.154 87.068,73.745 85.735,74.001 84.921 C 74.257 84.107,74.768 83.108,75.136 82.701 C 75.505 82.294,76.144 81.170,76.558 80.204 C 76.971 79.237,77.451 78.446,77.624 78.446 C 77.797 78.446,78.217 77.863,78.556 77.151 C 78.896 76.438,79.327 75.856,79.515 75.856 C 79.702 75.856,80.278 75.148,80.793 74.283 C 81.748 72.681,88.188 66.434,90.615 64.755 C 91.350 64.246,92.078 63.634,92.232 63.395 C 92.386 63.156,93.095 62.768,93.808 62.533 C 94.520 62.298,95.266 61.800,95.466 61.426 C 95.666 61.052,96.645 60.476,97.640 60.145 C 98.636 59.814,99.734 59.231,100.080 58.849 C 100.426 58.466,101.568 57.947,102.619 57.695 C 103.670 57.443,105.263 56.847,106.159 56.371 C 107.055 55.894,108.317 55.504,108.963 55.504 C 109.609 55.504,111.541 55.080,113.256 54.562 C 118.386 53.011,118.940 53.002,202.220 53.051 L 282.516 53.099 284.912 53.963 M179.942 97.195 C 178.227 97.337,177.890 97.513,176.867 98.805 C 175.574 100.438,174.064 101.012,171.058 101.016 C 169.019 101.018,168.363 101.548,168.363 103.192 C 168.363 104.472,166.971 105.088,164.081 105.088 L 161.444 105.088 160.878 106.530 C 160.566 107.324,159.833 108.265,159.249 108.623 C 158.665 108.980,157.576 109.954,156.829 110.788 L 155.470 112.303 152.573 112.303 L 149.676 112.303 149.484 115.503 L 149.292 118.702 146.806 121.163 C 145.439 122.517,143.831 123.795,143.234 124.003 C 142.354 124.310,142.100 124.661,141.900 125.841 C 141.637 127.397,140.904 128.030,139.362 128.030 C 138.074 128.030,137.850 128.576,137.967 131.442 C 138.082 134.263,137.125 135.800,135.253 135.800 C 133.916 135.800,133.382 137.288,133.969 139.383 C 134.282 140.502,134.296 141.257,134.018 142.054 C 133.768 142.771,133.745 143.971,133.953 145.439 C 134.324 148.064,133.732 149.827,132.204 150.644 C 131.708 150.910,131.107 151.467,130.869 151.882 C 130.422 152.658,130.106 239.777,130.517 248.970 L 130.704 253.167 131.785 253.544 C 132.471 253.783,133.136 254.449,133.605 255.368 C 134.130 256.398,134.762 256.982,135.801 257.398 C 136.882 257.830,137.375 258.304,137.712 259.235 C 138.290 260.835,139.145 261.098,144.866 261.435 C 152.718 261.897,154.721 261.619,155.625 259.939 C 156.295 258.695,157.866 257.539,158.886 257.539 C 159.270 257.539,159.614 256.971,159.888 255.885 C 160.381 253.928,160.903 253.422,162.739 253.124 L 164.107 252.901 164.132 244.212 L 164.156 235.523 165.676 234.805 C 166.799 234.275,167.340 233.720,167.748 232.680 C 168.593 230.530,168.613 230.527,187.027 230.527 C 205.229 230.527,205.944 230.481,206.244 229.284 C 206.798 227.082,206.959 227.036,213.761 227.150 L 220.019 227.255 221.488 225.283 L 222.958 223.312 226.044 223.082 C 229.334 222.837,229.772 222.574,229.782 220.835 C 229.790 219.329,231.009 218.686,233.856 218.686 C 236.236 218.686,236.292 218.664,236.963 217.418 C 237.576 216.278,238.166 215.881,240.220 215.225 C 240.576 215.112,240.952 214.468,241.089 213.735 C 241.344 212.378,242.058 211.534,243.293 211.133 C 243.700 211.000,244.368 210.358,244.778 209.706 C 245.188 209.054,246.039 208.185,246.670 207.775 C 247.302 207.366,248.132 206.448,248.516 205.735 C 249.052 204.741,249.557 204.358,250.694 204.087 C 252.386 203.683,252.715 203.344,252.723 202.000 C 252.730 200.924,253.478 200.152,255.158 199.490 C 256.258 199.055,256.292 198.970,256.314 196.620 C 256.340 193.928,256.752 193.243,258.754 192.567 L 259.944 192.165 260.130 186.910 C 260.333 181.126,260.333 181.126,262.812 180.711 L 264.200 180.479 264.251 175.993 C 264.619 143.420,264.679 144.557,262.544 143.613 C 260.494 142.706,260.130 141.988,260.130 138.859 C 260.130 136.264,259.764 135.430,258.625 135.430 C 256.473 135.430,255.641 133.132,256.488 129.528 C 256.566 129.195,256.154 128.835,255.404 128.581 C 253.452 127.921,252.977 127.191,252.828 124.618 C 252.626 121.138,252.484 120.741,251.345 120.456 C 250.118 120.150,249.053 119.251,248.641 118.172 C 248.474 117.737,247.633 116.905,246.771 116.322 C 245.763 115.642,245.051 114.809,244.778 113.991 C 244.477 113.092,244.033 112.615,243.268 112.369 C 241.758 111.882,241.340 111.486,241.078 110.292 C 240.865 109.319,240.702 109.241,238.386 109.004 C 235.651 108.724,233.837 107.815,233.194 106.402 C 232.742 105.411,232.292 105.256,228.867 104.913 C 226.323 104.658,226.135 104.524,225.347 102.400 L 224.766 100.833 222.004 100.821 C 218.712 100.807,218.452 100.677,217.942 98.782 L 217.548 97.317 203.003 97.317 C 195.003 97.317,186.975 97.254,185.163 97.177 C 183.351 97.099,181.002 97.108,179.942 97.195 M201.916 130.724 C 202.155 130.876,202.550 131.622,202.793 132.383 C 203.423 134.353,203.278 134.301,208.338 134.371 C 213.680 134.444,214.072 134.577,214.653 136.519 C 214.977 137.598,215.332 138.026,216.054 138.203 C 217.611 138.585,218.646 139.427,219.206 140.767 C 219.493 141.456,220.073 142.128,220.493 142.262 C 221.907 142.711,222.757 144.248,222.757 146.357 C 222.757 148.354,223.048 148.824,225.644 151.009 C 226.510 151.738,226.797 170.641,225.970 172.485 C 225.432 173.687,221.732 177.088,220.423 177.586 C 219.743 177.845,219.350 178.374,219.072 179.404 C 218.620 181.084,218.273 181.422,216.374 182.034 C 215.408 182.345,214.917 182.754,214.761 183.379 C 214.637 183.872,214.093 184.650,213.553 185.107 C 213.013 185.565,212.187 186.480,211.718 187.142 C 210.292 189.153,210.320 189.150,196.738 189.140 C 182.727 189.130,183.438 189.259,182.946 186.636 C 182.762 185.652,182.502 185.380,181.554 185.177 C 180.132 184.874,179.486 184.381,179.068 183.282 C 178.893 182.821,178.177 182.205,177.477 181.913 C 176.243 181.397,176.083 181.149,175.610 179.017 C 175.434 178.228,175.109 177.964,174.077 177.770 C 172.035 177.387,171.693 176.810,171.693 173.747 C 171.693 170.807,171.492 170.453,169.591 170.047 C 167.490 169.598,167.443 169.387,167.440 160.489 C 167.437 151.520,167.487 151.299,169.719 150.367 C 171.213 149.743,171.781 148.505,171.468 146.553 C 171.136 144.475,172.154 142.586,174.123 141.630 C 174.989 141.209,175.871 140.483,176.084 140.017 C 176.637 138.801,179.713 137.988,181.771 138.513 C 182.730 138.758,182.796 138.691,183.030 137.230 C 183.406 134.879,184.149 134.347,186.739 134.572 C 189.691 134.829,190.690 134.376,191.244 132.527 C 191.668 131.110,191.782 131.021,193.440 130.803 C 194.403 130.676,195.439 130.538,195.745 130.496 C 197.089 130.309,201.520 130.473,201.916 130.724 " stroke="none" fill="#fbfbfb" fill-rule="evenodd"></path><path id="path2" d="M119.149 53.312 C 117.623 53.481,114.971 54.044,113.256 54.562 C 111.541 55.080,109.609 55.504,108.963 55.504 C 108.317 55.504,107.055 55.894,106.159 56.371 C 105.263 56.847,103.670 57.443,102.619 57.695 C 101.568 57.947,100.426 58.466,100.080 58.849 C 99.734 59.231,98.636 59.814,97.640 60.145 C 96.645 60.476,95.666 61.052,95.466 61.426 C 95.266 61.800,94.520 62.298,93.808 62.533 C 93.095 62.768,92.386 63.156,92.232 63.395 C 92.078 63.634,91.350 64.246,90.615 64.755 C 88.188 66.434,81.748 72.681,80.793 74.283 C 80.278 75.148,79.702 75.856,79.515 75.856 C 79.327 75.856,78.896 76.438,78.556 77.151 C 78.217 77.863,77.797 78.446,77.624 78.446 C 77.451 78.446,76.971 79.237,76.558 80.204 C 76.144 81.170,75.505 82.294,75.136 82.701 C 74.768 83.108,74.257 84.107,74.001 84.921 C 73.745 85.735,73.154 87.068,72.688 87.882 C 72.222 88.696,71.729 90.028,71.593 90.842 C 71.457 91.656,71.061 92.738,70.712 93.247 C 69.993 94.296,69.340 97.591,68.987 101.943 C 68.855 103.571,68.474 105.819,68.139 106.938 C 67.174 110.163,67.208 260.592,68.174 264.200 C 68.528 265.523,68.990 268.165,69.200 270.072 C 69.410 271.978,69.907 274.309,70.305 275.252 C 70.702 276.195,71.207 277.798,71.427 278.816 C 71.647 279.833,72.212 281.332,72.681 282.146 C 73.151 282.960,73.745 284.292,74.001 285.106 C 74.257 285.920,74.760 286.920,75.119 287.327 C 75.478 287.734,76.127 288.774,76.562 289.639 C 76.996 290.504,77.498 291.212,77.677 291.212 C 77.857 291.212,78.178 291.713,78.392 292.325 C 79.352 295.080,91.758 307.493,93.552 307.493 C 93.735 307.493,94.513 307.992,95.281 308.602 C 96.049 309.212,97.294 309.878,98.048 310.081 C 98.803 310.284,99.715 310.776,100.075 311.174 C 100.438 311.575,101.660 312.088,102.817 312.323 C 103.964 312.557,105.416 313.061,106.044 313.443 C 106.671 313.825,108.337 314.392,109.744 314.703 C 111.152 315.014,113.219 315.521,114.339 315.829 C 118.699 317.030,123.485 317.101,200.000 317.098 C 276.427 317.095,283.012 316.997,285.256 315.837 C 285.847 315.531,287.554 315.097,289.049 314.872 C 290.544 314.647,292.624 314.077,293.672 313.606 C 294.720 313.134,296.135 312.627,296.817 312.479 C 298.477 312.119,302.942 309.806,304.453 308.524 C 305.122 307.957,305.884 307.493,306.146 307.493 C 306.562 307.493,308.166 306.341,311.555 303.607 C 314.303 301.389,320.603 294.648,321.211 293.272 C 321.588 292.419,322.217 291.432,322.607 291.078 C 322.998 290.725,323.601 289.694,323.947 288.789 C 324.292 287.883,324.715 287.142,324.884 287.142 C 325.054 287.142,325.486 286.351,325.843 285.384 C 326.200 284.417,326.863 282.960,327.317 282.146 C 327.770 281.332,328.331 279.750,328.562 278.631 C 328.793 277.512,329.301 275.930,329.691 275.116 C 330.111 274.237,330.556 272.081,330.786 269.809 C 330.999 267.705,331.465 265.040,331.822 263.889 C 332.800 260.727,332.829 109.783,331.851 106.568 C 331.511 105.449,331.121 103.201,330.985 101.573 C 330.714 98.317,329.859 94.077,329.349 93.458 C 329.169 93.240,328.769 92.089,328.460 90.900 C 328.150 89.711,327.624 88.436,327.290 88.067 C 326.956 87.698,326.443 86.598,326.149 85.623 C 325.856 84.648,325.312 83.508,324.940 83.090 C 324.568 82.673,324.048 81.748,323.783 81.036 C 323.519 80.324,323.005 79.475,322.642 79.150 C 322.278 78.824,321.602 77.742,321.138 76.744 C 320.156 74.630,311.496 65.853,309.273 64.719 C 308.519 64.335,307.769 63.793,307.605 63.516 C 307.442 63.238,306.684 62.719,305.920 62.361 C 305.157 62.003,304.533 61.553,304.533 61.362 C 304.533 61.170,303.742 60.665,302.775 60.241 C 301.809 59.816,300.641 59.175,300.181 58.817 C 299.720 58.459,298.472 57.963,297.406 57.715 C 296.339 57.467,294.939 56.946,294.294 56.557 C 293.648 56.168,291.812 55.620,290.214 55.339 C 288.615 55.058,286.229 54.439,284.912 53.963 L 282.516 53.099 202.220 53.051 C 158.057 53.025,120.675 53.142,119.149 53.312 M282.331 54.497 C 283.451 54.857,285.948 55.414,287.882 55.733 C 289.815 56.053,291.926 56.619,292.573 56.991 C 293.219 57.363,294.794 57.936,296.072 58.263 C 297.350 58.590,298.661 59.098,298.985 59.392 C 299.309 59.685,300.289 60.177,301.162 60.485 C 302.036 60.793,303.214 61.422,303.780 61.883 C 304.346 62.343,305.288 63.011,305.874 63.368 C 310.300 66.063,318.350 73.955,320.939 78.139 C 321.379 78.850,322.072 79.978,322.479 80.646 C 322.886 81.314,323.620 82.466,324.111 83.206 C 324.601 83.946,325.216 85.256,325.478 86.117 C 325.740 86.977,326.361 88.393,326.858 89.262 C 327.355 90.131,327.872 91.471,328.007 92.239 C 328.142 93.008,328.643 94.839,329.120 96.309 C 329.644 97.920,330.091 100.453,330.245 102.683 C 330.385 104.718,330.735 107.779,331.023 109.484 C 331.643 113.168,331.799 257.280,331.186 259.944 C 330.999 260.759,330.592 263.959,330.283 267.057 C 329.887 271.017,329.507 273.109,329.001 274.100 C 328.606 274.875,328.103 276.480,327.883 277.666 C 327.664 278.852,327.170 280.345,326.784 280.984 C 326.399 281.623,325.875 282.801,325.618 283.601 C 325.362 284.402,324.676 285.808,324.093 286.726 C 323.511 287.645,323.034 288.608,323.034 288.866 C 323.034 289.125,322.563 289.883,321.987 290.551 C 321.410 291.220,320.823 292.084,320.681 292.473 C 320.329 293.435,315.222 299.247,314.490 299.517 C 314.167 299.637,313.701 300.111,313.455 300.571 C 313.209 301.031,312.266 301.876,311.360 302.449 C 310.454 303.022,309.713 303.621,309.713 303.781 C 309.713 303.941,308.711 304.717,307.485 305.505 C 306.260 306.293,304.720 307.301,304.063 307.745 C 301.888 309.214,296.356 311.933,295.535 311.937 C 295.090 311.939,293.843 312.352,292.761 312.856 C 291.680 313.359,289.349 314.020,287.581 314.325 C 285.813 314.629,283.451 315.173,282.331 315.534 C 279.148 316.558,120.708 316.549,117.854 315.524 C 116.836 315.159,114.463 314.634,112.579 314.358 C 110.633 314.073,108.476 313.500,107.584 313.031 C 106.720 312.577,105.020 311.971,103.806 311.685 C 102.593 311.399,101.344 310.936,101.031 310.656 C 100.718 310.377,99.547 309.744,98.427 309.250 C 97.308 308.757,96.164 308.076,95.884 307.738 C 95.605 307.400,95.148 307.123,94.868 307.123 C 93.091 307.123,81.039 295.487,78.889 291.695 C 78.040 290.199,76.962 288.443,75.896 286.822 C 75.410 286.082,74.721 284.629,74.365 283.594 C 74.008 282.559,73.421 281.143,73.060 280.449 C 72.698 279.754,72.190 278.270,71.930 277.151 C 71.670 276.031,71.128 274.200,70.726 273.080 C 68.828 267.794,68.536 255.128,68.494 176.133 C 68.465 124.297,68.549 112.804,68.975 109.898 C 69.259 107.965,69.607 104.718,69.750 102.683 C 69.922 100.221,70.368 97.855,71.082 95.614 C 71.672 93.761,72.155 91.996,72.155 91.691 C 72.155 91.386,72.591 90.321,73.124 89.324 C 73.657 88.327,74.327 86.728,74.614 85.770 C 74.900 84.812,75.316 83.916,75.537 83.780 C 75.758 83.643,76.340 82.679,76.831 81.636 C 77.321 80.594,78.177 79.147,78.732 78.420 C 79.287 77.694,80.360 76.266,81.117 75.247 C 83.317 72.285,93.806 62.905,94.918 62.905 C 95.170 62.905,95.605 62.629,95.884 62.293 C 96.164 61.956,97.391 61.197,98.612 60.607 C 99.833 60.016,101.415 59.209,102.128 58.814 C 102.840 58.419,103.840 58.095,104.351 58.095 C 104.861 58.095,106.034 57.692,106.958 57.201 C 107.971 56.661,109.877 56.136,111.765 55.876 C 113.486 55.639,115.707 55.187,116.702 54.873 C 120.174 53.775,122.817 53.741,201.295 53.791 C 275.782 53.839,280.412 53.880,282.331 54.497 M176.738 96.604 C 176.202 97.026,175.763 97.694,175.763 98.090 C 175.763 99.334,173.674 100.275,170.906 100.276 C 168.235 100.278,167.856 100.508,167.457 102.380 C 167.073 104.176,166.476 104.480,164.018 104.131 C 162.846 103.964,161.747 103.820,161.576 103.810 C 161.405 103.801,160.905 104.531,160.466 105.434 C 159.632 107.146,159.210 107.497,157.569 107.841 C 156.821 107.997,156.519 108.340,156.325 109.250 C 155.872 111.383,155.200 111.803,152.390 111.712 C 149.044 111.604,148.751 111.887,148.751 115.238 C 148.751 118.405,148.349 119.072,146.346 119.223 C 144.894 119.332,144.862 119.364,144.681 120.958 C 144.511 122.451,144.364 122.644,142.852 123.363 C 141.583 123.966,141.138 124.417,140.900 125.342 C 140.674 126.222,140.324 126.604,139.584 126.780 C 137.632 127.243,137.280 127.887,137.280 130.990 C 137.280 134.205,136.765 135.060,134.827 135.060 C 132.940 135.060,132.840 135.418,132.840 142.168 C 132.840 148.913,133.010 148.300,130.620 150.179 L 129.695 150.906 129.597 201.689 C 129.492 256.322,129.410 253.775,131.289 254.372 C 131.668 254.492,132.297 255.295,132.687 256.157 C 133.306 257.526,133.605 257.774,135.060 258.121 C 136.579 258.484,136.770 258.657,137.235 260.103 C 138.034 262.585,138.920 262.806,147.616 262.685 C 155.637 262.574,156.218 262.428,157.110 260.292 C 157.452 259.473,158.142 258.774,159.083 258.294 C 160.176 257.736,160.593 257.260,160.789 256.345 C 161.152 254.645,161.610 254.209,163.030 254.209 C 164.966 254.209,165.068 253.694,164.978 244.311 L 164.897 235.893 166.352 235.153 C 167.153 234.746,168.417 233.787,169.162 233.022 L 170.516 231.631 177.857 231.670 C 181.895 231.692,189.906 231.694,195.660 231.674 L 206.121 231.637 206.516 230.620 C 207.680 227.618,207.004 227.852,214.340 227.913 C 221.446 227.972,222.757 227.582,222.757 225.409 C 222.757 224.206,223.843 223.691,226.786 223.497 C 229.482 223.319,229.616 223.267,230.081 222.202 C 231.071 219.936,231.008 219.973,233.641 220.108 C 236.387 220.249,236.949 219.974,237.727 218.111 C 238.105 217.207,238.610 216.795,239.834 216.389 C 241.295 215.905,241.480 215.706,241.841 214.219 C 242.172 212.855,242.482 212.457,243.691 211.841 C 245.570 210.883,249.029 207.443,249.029 206.532 C 249.029 205.621,249.641 205.146,251.249 204.810 C 252.936 204.458,253.469 203.997,253.469 202.891 C 253.469 201.465,254.104 200.636,255.409 200.357 C 257.346 199.943,257.539 199.603,257.539 196.606 L 257.539 193.857 258.771 193.342 C 260.731 192.523,260.839 192.200,260.951 186.840 L 261.055 181.869 262.635 181.658 C 265.118 181.326,264.992 182.334,265.040 162.396 C 265.089 142.357,265.121 142.667,262.913 142.253 C 261.140 141.920,260.920 141.518,260.795 138.376 L 260.685 135.619 259.204 134.849 L 257.724 134.079 257.723 131.332 C 257.722 128.157,257.503 127.660,256.108 127.660 C 254.209 127.660,253.753 126.953,253.461 123.554 C 253.121 119.605,252.999 119.347,251.213 118.812 C 250.247 118.523,249.622 118.070,249.408 117.507 C 249.227 117.034,248.563 116.277,247.931 115.827 C 247.299 115.377,246.496 114.405,246.147 113.667 C 245.675 112.666,245.174 112.228,244.178 111.944 C 242.401 111.437,241.628 110.740,241.628 109.644 C 241.628 107.987,240.965 107.232,239.744 107.500 C 237.635 107.964,235.708 107.340,234.200 105.708 C 232.851 104.247,232.705 104.186,230.276 104.090 C 227.716 103.989,226.457 103.276,226.457 101.929 C 226.457 100.673,224.519 99.843,221.883 99.970 C 219.041 100.107,218.971 100.057,218.310 97.410 L 217.918 95.837 197.815 95.837 C 178.039 95.837,177.697 95.850,176.738 96.604 M203.003 97.317 L 217.548 97.317 217.942 98.782 C 218.452 100.677,218.712 100.807,222.004 100.821 L 224.766 100.833 225.347 102.400 C 226.135 104.524,226.323 104.658,228.867 104.913 C 232.292 105.256,232.742 105.411,233.194 106.402 C 233.837 107.815,235.651 108.724,238.386 109.004 C 240.702 109.241,240.865 109.319,241.078 110.292 C 241.340 111.486,241.758 111.882,243.268 112.369 C 244.033 112.615,244.477 113.092,244.778 113.991 C 245.051 114.809,245.763 115.642,246.771 116.322 C 247.633 116.905,248.474 117.737,248.641 118.172 C 249.053 119.251,250.118 120.150,251.345 120.456 C 252.484 120.741,252.626 121.138,252.828 124.618 C 252.977 127.191,253.452 127.921,255.404 128.581 C 256.154 128.835,256.566 129.195,256.488 129.528 C 255.641 133.132,256.473 135.430,258.625 135.430 C 259.764 135.430,260.130 136.264,260.130 138.859 C 260.130 141.988,260.494 142.706,262.544 143.613 C 264.679 144.557,264.619 143.420,264.251 175.993 L 264.200 180.479 262.812 180.711 C 260.333 181.126,260.333 181.126,260.130 186.910 L 259.944 192.165 258.754 192.567 C 256.752 193.243,256.340 193.928,256.314 196.620 C 256.292 198.970,256.258 199.055,255.158 199.490 C 253.478 200.152,252.730 200.924,252.723 202.000 C 252.715 203.344,252.386 203.683,250.694 204.087 C 249.557 204.358,249.052 204.741,248.516 205.735 C 248.132 206.448,247.302 207.366,246.670 207.775 C 246.039 208.185,245.188 209.054,244.778 209.706 C 244.368 210.358,243.700 211.000,243.293 211.133 C 242.058 211.534,241.344 212.378,241.089 213.735 C 240.952 214.468,240.576 215.112,240.220 215.225 C 238.166 215.881,237.576 216.278,236.963 217.418 C 236.292 218.664,236.236 218.686,233.856 218.686 C 231.009 218.686,229.790 219.329,229.782 220.835 C 229.772 222.574,229.334 222.837,226.044 223.082 L 222.958 223.312 221.488 225.283 L 220.019 227.255 213.761 227.150 C 206.959 227.036,206.798 227.082,206.244 229.284 C 205.944 230.481,205.229 230.527,187.027 230.527 C 168.613 230.527,168.593 230.530,167.748 232.680 C 167.340 233.720,166.799 234.275,165.676 234.805 L 164.156 235.523 164.132 244.212 L 164.107 252.901 162.739 253.124 C 160.903 253.422,160.381 253.928,159.888 255.885 C 159.614 256.971,159.270 257.539,158.886 257.539 C 157.866 257.539,156.295 258.695,155.625 259.939 C 154.721 261.619,152.718 261.897,144.866 261.435 C 139.145 261.098,138.290 260.835,137.712 259.235 C 137.375 258.304,136.882 257.830,135.801 257.398 C 134.762 256.982,134.130 256.398,133.605 255.368 C 133.136 254.449,132.471 253.783,131.785 253.544 L 130.704 253.167 130.517 248.970 C 130.106 239.777,130.422 152.658,130.869 151.882 C 131.107 151.467,131.708 150.910,132.204 150.644 C 133.732 149.827,134.324 148.064,133.953 145.439 C 133.745 143.971,133.768 142.771,134.018 142.054 C 134.296 141.257,134.282 140.502,133.969 139.383 C 133.382 137.288,133.916 135.800,135.253 135.800 C 137.125 135.800,138.082 134.263,137.967 131.442 C 137.850 128.576,138.074 128.030,139.362 128.030 C 140.904 128.030,141.637 127.397,141.900 125.841 C 142.100 124.661,142.354 124.310,143.234 124.003 C 143.831 123.795,145.439 122.517,146.806 121.163 L 149.292 118.702 149.484 115.503 L 149.676 112.303 152.573 112.303 L 155.470 112.303 156.829 110.788 C 157.576 109.954,158.665 108.980,159.249 108.623 C 159.833 108.265,160.566 107.324,160.878 106.530 L 161.444 105.088 164.081 105.088 C 166.971 105.088,168.363 104.472,168.363 103.192 C 168.363 101.548,169.019 101.018,171.058 101.016 C 174.064 101.012,175.574 100.438,176.867 98.805 C 178.187 97.138,179.274 96.925,185.163 97.177 C 186.975 97.254,195.003 97.317,203.003 97.317 M195.745 130.496 C 195.439 130.538,194.403 130.676,193.440 130.803 C 191.782 131.021,191.668 131.110,191.244 132.527 C 190.690 134.376,189.691 134.829,186.739 134.572 C 184.149 134.347,183.406 134.879,183.030 137.230 C 182.796 138.691,182.730 138.758,181.771 138.513 C 179.713 137.988,176.637 138.801,176.084 140.017 C 175.871 140.483,174.989 141.209,174.123 141.630 C 172.154 142.586,171.136 144.475,171.468 146.553 C 171.781 148.505,171.213 149.743,169.719 150.367 C 167.487 151.299,167.437 151.520,167.440 160.489 C 167.443 169.387,167.490 169.598,169.591 170.047 C 171.492 170.453,171.693 170.807,171.693 173.747 C 171.693 176.810,172.035 177.387,174.077 177.770 C 175.109 177.964,175.434 178.228,175.610 179.017 C 176.083 181.149,176.243 181.397,177.477 181.913 C 178.177 182.205,178.893 182.821,179.068 183.282 C 179.486 184.381,180.132 184.874,181.554 185.177 C 182.502 185.380,182.762 185.652,182.946 186.636 C 183.438 189.259,182.727 189.130,196.738 189.140 C 210.320 189.150,210.292 189.153,211.718 187.142 C 212.187 186.480,213.013 185.565,213.553 185.107 C 214.093 184.650,214.637 183.872,214.761 183.379 C 214.917 182.754,215.408 182.345,216.374 182.034 C 218.273 181.422,218.620 181.084,219.072 179.404 C 219.350 178.374,219.743 177.845,220.423 177.586 C 221.732 177.088,225.432 173.687,225.970 172.485 C 226.797 170.641,226.510 151.738,225.644 151.009 C 223.048 148.824,222.757 148.354,222.757 146.357 C 222.757 144.248,221.907 142.711,220.493 142.262 C 220.073 142.128,219.493 141.456,219.206 140.767 C 218.646 139.427,217.611 138.585,216.054 138.203 C 215.332 138.026,214.977 137.598,214.653 136.519 C 214.072 134.577,213.680 134.444,208.338 134.371 C 203.278 134.301,203.423 134.353,202.793 132.383 C 202.199 130.525,199.923 129.915,195.745 130.496 M202.303 133.302 C 203.290 135.282,202.733 135.145,209.466 135.063 C 213.420 135.015,213.564 135.090,214.214 137.520 C 214.636 139.098,215.135 139.500,216.674 139.500 C 217.348 139.500,217.751 139.879,218.349 141.073 C 218.782 141.938,219.654 143.191,220.288 143.858 C 221.255 144.875,221.449 145.385,221.499 147.037 C 221.572 149.469,222.066 150.441,223.394 150.773 C 225.671 151.341,225.651 151.246,225.690 161.555 C 225.730 171.841,225.556 172.854,223.675 173.327 C 223.123 173.465,222.390 174.123,221.943 174.879 C 221.517 175.601,220.561 176.576,219.818 177.044 C 218.838 177.663,218.371 178.286,218.115 179.316 C 217.806 180.554,217.582 180.776,216.352 181.066 C 215.303 181.313,214.715 181.758,214.053 182.806 C 213.564 183.581,212.822 184.324,212.404 184.456 C 211.986 184.589,211.313 185.346,210.908 186.138 C 209.746 188.416,209.820 188.405,196.596 188.408 C 183.555 188.410,183.926 188.472,183.569 186.235 C 183.387 185.098,183.097 184.706,182.052 184.189 C 181.340 183.837,180.426 183.140,180.019 182.640 C 179.611 182.140,178.818 181.557,178.256 181.344 C 177.239 180.960,176.744 180.170,176.345 178.294 C 176.170 177.472,175.874 177.266,174.562 177.049 C 172.154 176.652,172.007 176.414,172.283 173.366 C 172.541 170.517,171.711 169.103,169.781 169.103 C 168.785 169.103,168.776 169.030,168.656 160.144 L 168.548 152.110 169.937 151.483 C 171.937 150.582,172.213 150.079,172.247 147.272 C 172.281 144.456,172.638 143.805,174.480 143.197 C 175.166 142.970,175.826 142.476,175.946 142.098 C 176.578 140.107,177.554 139.501,180.138 139.495 C 183.141 139.488,183.498 139.286,183.783 137.435 C 184.111 135.305,184.383 135.125,187.282 135.125 C 190.174 135.125,191.912 134.581,192.231 133.574 C 192.637 132.296,193.601 131.917,197.002 131.699 C 201.572 131.406,201.320 131.330,202.303 133.302 M195.371 140.523 C 194.686 141.815,194.249 142.251,193.706 142.183 C 190.348 141.761,187.604 142.875,187.604 144.662 C 187.604 145.967,186.531 146.433,183.110 146.615 C 179.814 146.791,179.463 147.137,179.463 150.219 C 179.463 152.892,179.110 153.521,177.202 154.247 C 176.007 154.701,175.763 155.764,175.763 160.511 L 175.763 164.037 177.201 165.404 C 178.995 167.111,179.463 167.975,179.463 169.578 C 179.463 172.264,180.574 173.913,182.382 173.913 C 183.301 173.913,183.899 172.047,183.902 169.171 C 183.904 166.718,184.329 165.900,185.763 165.585 C 187.383 165.230,188.048 163.997,187.936 161.565 C 187.841 159.528,188.323 158.372,189.265 158.372 C 190.251 158.372,191.674 156.842,191.674 155.781 C 191.674 154.767,191.760 154.716,193.802 154.506 C 197.634 154.113,198.475 153.824,199.002 152.722 C 199.723 151.215,200.844 150.677,203.229 150.693 C 205.642 150.709,206.323 150.303,206.679 148.633 C 207.035 146.971,207.500 146.531,208.900 146.531 C 210.443 146.531,211.248 145.758,211.008 144.506 C 210.684 142.808,209.680 142.461,205.098 142.461 C 200.894 142.461,199.445 141.989,199.445 140.619 C 199.445 140.204,198.127 139.310,197.040 138.989 C 196.443 138.812,196.120 139.109,195.371 140.523 M272.656 151.024 C 272.264 151.718,272.178 155.003,272.239 167.068 C 272.323 183.977,272.322 183.991,270.036 184.906 C 268.169 185.653,267.900 186.416,267.900 190.976 L 267.900 194.670 266.235 196.359 C 265.319 197.288,264.559 198.154,264.545 198.284 C 264.532 198.414,264.470 199.542,264.407 200.792 C 264.269 203.565,264.139 203.794,262.521 204.097 C 261.450 204.298,261.119 204.607,260.517 205.967 C 259.946 207.258,259.559 207.644,258.655 207.825 C 257.481 208.060,256.800 208.879,256.798 210.059 C 256.798 210.482,256.150 211.073,255.049 211.656 C 253.714 212.363,253.218 212.875,252.950 213.825 C 252.673 214.802,252.256 215.215,250.998 215.754 C 250.119 216.131,249.399 216.673,249.399 216.958 C 249.399 218.077,247.921 219.381,246.521 219.497 C 245.216 219.605,245.134 219.690,244.958 221.088 C 244.809 222.282,244.561 222.664,243.663 223.080 C 242.036 223.835,241.368 224.519,241.139 225.665 C 240.944 226.642,240.797 226.705,237.725 227.116 C 234.515 227.545,233.488 227.973,233.488 228.881 C 233.488 229.870,231.534 230.975,230.158 230.764 C 227.627 230.376,226.337 230.929,226.001 232.546 C 225.493 234.991,225.565 234.968,218.413 234.968 L 211.940 234.968 210.585 236.450 C 208.581 238.643,208.249 238.681,191.489 238.683 C 183.145 238.683,176.065 238.708,175.757 238.737 C 175.448 238.767,174.745 238.678,174.196 238.540 C 172.362 238.080,172.068 239.384,172.026 248.178 C 171.982 257.454,171.983 257.450,169.844 258.240 C 168.901 258.588,168.010 259.214,167.769 259.698 C 167.536 260.165,166.742 261.100,166.004 261.776 C 165.266 262.451,164.662 263.275,164.662 263.606 C 164.662 263.959,163.939 264.551,162.908 265.040 C 161.745 265.592,160.990 266.246,160.668 266.979 C 160.402 267.587,160.050 268.335,159.887 268.640 C 159.542 269.285,156.982 269.660,152.557 269.714 C 148.360 269.764,147.364 271.965,150.748 273.711 C 151.456 274.077,152.427 274.958,152.906 275.671 L 153.776 276.966 162.630 276.966 L 171.484 276.966 172.312 275.486 C 172.956 274.333,173.409 273.965,174.359 273.821 C 175.416 273.660,175.645 273.423,176.084 272.037 C 176.500 270.722,176.874 270.301,178.190 269.661 C 179.982 268.790,180.597 267.134,179.854 265.180 C 179.555 264.394,179.596 263.906,180.032 263.063 C 180.476 262.205,180.517 261.665,180.223 260.571 C 180.016 259.803,179.856 257.547,179.866 255.558 L 179.886 251.940 181.518 251.241 C 182.972 250.617,183.176 250.379,183.388 249.052 C 183.792 246.526,183.042 246.631,201.260 246.548 C 210.336 246.507,218.707 246.465,219.863 246.456 C 222.275 246.436,223.127 245.847,223.127 244.199 C 223.127 242.816,223.329 242.775,230.653 242.652 C 236.424 242.555,236.525 242.539,237.202 241.628 C 238.780 239.505,238.956 239.408,241.234 239.408 C 244.437 239.408,245.328 238.977,245.328 237.427 C 245.328 235.644,246.085 235.204,249.535 234.979 L 252.544 234.783 253.469 232.932 C 254.094 231.683,254.656 231.045,255.200 230.968 C 255.644 230.904,256.604 230.124,257.334 229.233 C 258.064 228.342,258.973 227.514,259.354 227.393 C 259.794 227.254,260.199 226.572,260.462 225.526 C 260.790 224.227,261.072 223.839,261.798 223.688 C 262.305 223.583,263.109 223.417,263.586 223.320 C 264.178 223.198,264.636 222.674,265.033 221.661 C 265.408 220.707,266.077 219.907,266.912 219.414 C 267.626 218.993,268.474 218.245,268.798 217.750 C 269.122 217.256,269.877 216.598,270.477 216.288 C 271.723 215.644,272.335 213.968,272.338 211.193 C 272.341 209.179,273.245 207.956,274.733 207.956 C 276.104 207.956,276.411 206.943,276.411 202.418 L 276.411 198.312 278.275 196.506 L 280.139 194.700 280.032 177.058 L 279.926 159.416 279.106 158.801 C 278.656 158.463,277.921 157.926,277.473 157.607 C 276.783 157.115,276.640 156.608,276.538 154.293 C 276.406 151.301,276.087 150.740,274.312 150.385 C 273.344 150.192,273.066 150.299,272.656 151.024 " stroke="none" fill="#e3c557" fill-rule="evenodd"></path></g></svg>